<svg width="64" height="64" viewBox="0 0 64 64" fill="none" xmlns="http://www.w3.org/2000/svg">
<rect width="64" height="64" rx="10.9474" fill="#B32D26"/>
<path d="M20.0366 35.1002C17.905 35.1002 15.8611 34.1858 14.3539 32.558C12.8466 30.9302 12 28.7229 12 26.4209C12 24.1189 12.8466 21.9116 14.3539 20.2838C15.8611 18.656 17.905 17.7417 20.0366 17.7417H49.5579V24.2003H18.5304V28.6409H43.9634C46.0944 28.6409 48.1389 29.5553 49.6461 31.1831C51.1528 32.8109 52 35.0188 52 37.3202C52 39.6222 51.1534 41.8301 49.6461 43.4573C48.1389 45.0851 46.0944 46 43.9634 46H13.5142V39.5408H45.0629V35.1002H20.0366Z" fill="white"/>
</svg>
