<svg width="152" height="152" viewBox="0 0 152 152" fill="none" xmlns="http://www.w3.org/2000/svg">
<rect width="152" height="152" rx="26" fill="#B32D26"/>
<path d="M47.5868 83.3629C42.5244 83.3629 37.6702 81.1913 34.0905 77.3253C30.5107 73.4593 28.5 68.2169 28.5 62.7496C28.5 57.2824 30.5107 52.04 34.0905 48.174C37.6702 44.308 42.5244 42.1364 47.5868 42.1364H117.7V57.4757H44.0096V68.0222H104.413C109.474 68.0222 114.33 70.1938 117.91 74.0598C121.488 77.9258 123.5 83.1696 123.5 88.6354C123.5 94.1027 121.489 99.3464 117.91 103.211C114.33 107.077 109.474 109.25 104.413 109.25H32.0962V93.9094H107.024V83.3629H47.5868Z" fill="white"/>
</svg>
