<svg width="48" height="48" viewBox="0 0 48 48" fill="none" xmlns="http://www.w3.org/2000/svg">
<path fill-rule="evenodd" clip-rule="evenodd" d="M34.379 19.5895C34.379 27.7575 27.7575 34.379 19.5895 34.379C11.4215 34.379 4.79995 27.7575 4.79995 19.5895C4.79995 11.4215 11.4215 4.79995 19.5895 4.79995C27.7575 4.79995 34.379 11.4215 34.379 19.5895ZM39.179 19.5895C39.179 30.4085 30.4085 39.179 19.5895 39.179C8.77052 39.179 0 30.4085 0 19.5895C0 8.77052 8.77052 0 19.5895 0C30.4085 0 39.179 8.77052 39.179 19.5895ZM34.0864 37.479L44.6062 47.9988L48.0002 44.6047L37.4804 34.0849L34.0864 37.479Z" fill="#ED2222"/>
</svg>
