<svg width="24" height="24" viewBox="0 0 24 24" fill="none" xmlns="http://www.w3.org/2000/svg">
<g clip-path="url(#clip0_2617_35881)">
<rect width="24" height="24" rx="12" fill="white"/>
<path d="M30.4773 16.6055H-5.44531V18.4566H30.4773V16.6055Z" fill="#F1F2F2"/>
<path d="M30.4779 1.82227H11.582V3.67339H30.4779V1.82227Z" fill="#F1F2F2"/>
<path d="M30.4749 5.51953H11.582V7.36765H30.4749V5.51953Z" fill="#F1F2F2"/>
<path d="M30.4749 9.21484H11.582V11.066H30.4749V9.21484Z" fill="#F1F2F2"/>
<path d="M30.4773 12.9141H-5.44531V14.7622H30.4773V12.9141Z" fill="#F1F2F2"/>
<path d="M30.4773 20.3047H-5.44531V22.1528H30.4773V20.3047Z" fill="#F1F2F2"/>
<path d="M30.4773 18.4512H-5.44531V20.2993H30.4773V18.4512Z" fill="#E10E00"/>
<path d="M30.4779 3.66992H11.582V5.51804H30.4779V3.66992Z" fill="#E10E00"/>
<path d="M30.4779 0H11.582V1.81807H30.4779V0Z" fill="#E10E00"/>
<path d="M30.4779 7.36719H11.582V9.2123H30.4779V7.36719Z" fill="#E10E00"/>
<path d="M30.4779 11.0625H11.582V12.9136H30.4779V11.0625Z" fill="#E10E00"/>
<path d="M30.4773 14.7598H-5.44531V16.6049H30.4773V14.7598Z" fill="#E10E00"/>
<path d="M30.4773 22.1504H-5.44531V23.9985H30.4773V22.1504Z" fill="#E10E00"/>
<path d="M11.5775 0H-5.44922V12.9098H11.5775V0Z" fill="#000D7F"/>
<path fill-rule="evenodd" clip-rule="evenodd" d="M-4.14658 0.976562L-3.99332 1.46338L-3.49448 1.45737L-3.89716 1.75788L-3.7439 2.24771L-4.14958 1.9442L-4.55226 2.24771L-4.399 1.75788L-4.80469 1.45737L-4.30284 1.46338L-4.15259 0.976562H-4.14658ZM7.27571 0.976562L7.42897 1.46338L7.92781 1.45737L7.52513 1.75788L7.67839 2.24771L7.2727 1.9442L6.87002 2.24771L7.02328 1.75788L6.6206 1.45737L7.11945 1.46338L7.2697 0.976562H7.27571ZM10.1185 0.976562L10.2718 1.46338L10.7766 1.45737L10.3679 1.75788L10.5242 2.24771L10.1185 1.9442L9.71583 2.24771L9.87209 1.75788L9.4634 1.45737L9.96225 1.46338L10.1155 0.976562H10.1185ZM1.56006 0.976562L1.71332 1.46338L2.21216 1.45737L1.80648 1.75788L1.96274 2.24771L1.55705 1.9442L1.15437 2.24771L1.30763 1.75788L0.901948 1.45737L1.40079 1.46338L1.55405 0.976562H1.56006ZM-1.30378 0.976562L-1.15052 1.46338L-0.651675 1.45737L-1.05736 1.75788L-0.901097 2.24771L-1.30678 1.9442L-1.71247 2.24771L-1.5532 1.75788L-1.96189 1.45737L-1.46305 1.46338L-1.30979 0.976562H-1.30378ZM4.40586 0.976562L4.55612 1.46338L5.05496 1.45737L4.64927 1.75788L4.80554 2.24771L4.40286 1.9442L3.99717 2.24771L4.15043 1.75788L3.74475 1.45737L4.24058 1.46338L4.39985 0.976562H4.40586Z" fill="#F1F2F2"/>
<path fill-rule="evenodd" clip-rule="evenodd" d="M-4.14658 3.39648L-3.99332 3.88631H-3.49448L-3.89716 4.18682L-3.7439 4.67064L-4.14958 4.37013L-4.55226 4.67064L-4.399 4.18682L-4.80469 3.88631H-4.30284L-4.15259 3.39648H-4.14658ZM7.27571 3.39648L7.42897 3.88631H7.92781L7.52513 4.18682L7.67839 4.67064L7.2727 4.37013L6.87002 4.67064L7.02328 4.18682L6.6206 3.88631H7.11945L7.2697 3.39648H7.27571ZM10.1185 3.39648L10.2718 3.88631H10.7766L10.3679 4.18682L10.5242 4.67064L10.1185 4.37013L9.71583 4.67064L9.87209 4.18682L9.4634 3.88631H9.96225L10.1155 3.39648H10.1185ZM1.56006 3.39648L1.71332 3.88631H2.21216L1.80648 4.18682L1.96274 4.67064L1.55705 4.37013L1.15437 4.67064L1.30763 4.18682L0.901948 3.88631H1.40079L1.55405 3.39648H1.56006ZM-1.30378 3.39648L-1.15052 3.88631H-0.651675L-1.05736 4.18682L-0.901097 4.67064L-1.30678 4.37013L-1.71247 4.67064L-1.5532 4.18682L-1.96189 3.88631H-1.46305L-1.30979 3.39648H-1.30378ZM4.40586 3.39648L4.55612 3.88631H5.05496L4.64927 4.18682L4.80554 4.67064L4.40286 4.37013L3.99717 4.67064L4.15043 4.18682L3.74475 3.88631H4.24058L4.39985 3.39648H4.40586Z" fill="#F1F2F2"/>
<path fill-rule="evenodd" clip-rule="evenodd" d="M-4.14658 5.7793L-3.99332 6.26612H-3.49448L-3.89716 6.56362L-3.7439 7.05345L-4.14958 6.74994L-4.55226 7.05345L-4.399 6.56362L-4.80469 6.26311H-4.30284L-4.15259 5.7793H-4.14658ZM7.27571 5.7793L7.42897 6.26612H7.92781L7.52513 6.56362L7.67839 7.05345L7.2727 6.74994L6.87002 7.05345L7.02328 6.56362L6.6206 6.26311H7.11945L7.2697 5.7793H7.27571ZM10.1185 5.7793L10.2718 6.26612H10.7766L10.3679 6.56362L10.5242 7.05345L10.1185 6.74994L9.71583 7.05345L9.87209 6.56362L9.4634 6.26311H9.96225L10.1155 5.7793H10.1185ZM1.56006 5.7793L1.71332 6.26612H2.21216L1.80648 6.56362L1.96274 7.05345L1.55705 6.74994L1.15437 7.05345L1.30763 6.56362L0.901948 6.26311H1.40079L1.55405 5.7793H1.56006ZM-1.30378 5.7793L-1.15052 6.26612H-0.651675L-1.05736 6.56362L-0.901097 7.05345L-1.30678 6.74994L-1.71247 7.05345L-1.5532 6.56362L-1.96189 6.26311H-1.46305L-1.30979 5.7793H-1.30378ZM4.40586 5.7793L4.55612 6.26612H5.05496L4.64927 6.56362L4.80554 7.05345L4.40286 6.74994L3.99717 7.05345L4.15043 6.56362L3.74475 6.26311H4.24058L4.39985 5.7793H4.40586Z" fill="#F1F2F2"/>
<path fill-rule="evenodd" clip-rule="evenodd" d="M-4.14658 8.2168L-3.99332 8.70362H-3.49448L-3.89716 9.00713L-3.7439 9.48794L-4.14958 9.18744L-4.55226 9.48794L-4.399 9.00713L-4.80469 8.70362H-4.30284L-4.15259 8.2168H-4.14658ZM7.27571 8.2168L7.42897 8.70362H7.92781L7.52513 9.00713L7.67839 9.48794L7.2727 9.18744L6.87002 9.48794L7.02328 9.00713L6.6206 8.70362H7.11945L7.2697 8.2168H7.27571ZM10.1185 8.2168L10.2718 8.70362H10.7766L10.3679 9.00713L10.5242 9.48794L10.1185 9.18744L9.71583 9.48794L9.87209 9.00713L9.4634 8.70362H9.96225L10.1155 8.2168H10.1185ZM1.56006 8.2168L1.71332 8.70362H2.21216L1.80648 9.00713L1.96274 9.48794L1.55705 9.18744L1.15437 9.48794L1.30763 9.00713L0.901948 8.70362H1.40079L1.55405 8.2168H1.56006ZM-1.30378 8.2168L-1.15052 8.70362H-0.651675L-1.05736 9.00713L-0.901097 9.48794L-1.30678 9.18744L-1.71247 9.48794L-1.5532 9.00713L-1.96189 8.70362H-1.46305L-1.30979 8.2168H-1.30378ZM4.40586 8.2168L4.55612 8.70362H5.05496L4.64927 9.00713L4.80554 9.48794L4.40286 9.18744L3.99717 9.48794L4.15043 9.00713L3.74475 8.70362H4.24058L4.39985 8.2168H4.40586Z" fill="#F1F2F2"/>
<path fill-rule="evenodd" clip-rule="evenodd" d="M-4.14658 10.623L-3.99332 11.1129H-3.49448L-3.89716 11.4074L-3.7439 11.8972L-4.14958 11.5937L-4.55226 11.8972L-4.399 11.4074L-4.80469 11.1129H-4.30284L-4.15259 10.623H-4.14658ZM7.27571 10.623L7.42897 11.1129H7.92781L7.52513 11.4074L7.67839 11.8972L7.2727 11.5937L6.87002 11.8972L7.02328 11.4074L6.6206 11.1129H7.11945L7.2697 10.623H7.27571ZM10.1185 10.623L10.2718 11.1129H10.7766L10.3679 11.4074L10.5242 11.8972L10.1185 11.5937L9.71583 11.8972L9.87209 11.4074L9.4634 11.1129H9.96225L10.1155 10.623H10.1185ZM1.56006 10.623L1.71332 11.1129H2.21216L1.80648 11.4074L1.96274 11.8972L1.55705 11.5937L1.15437 11.8972L1.30763 11.4074L0.901948 11.1129H1.40079L1.55405 10.623H1.56006ZM-1.30378 10.623L-1.15052 11.1129H-0.651675L-1.05736 11.4074L-0.901097 11.8972L-1.30678 11.5937L-1.71247 11.8972L-1.5532 11.4074L-1.96189 11.1129H-1.46305L-1.30979 10.623H-1.30378ZM4.40586 10.623L4.55612 11.1129H5.05496L4.64927 11.4074L4.80554 11.8972L4.40286 11.5937L3.99717 11.8972L4.15043 11.4074L3.74475 11.1129H4.24058L4.39985 10.623H4.40586Z" fill="#F1F2F2"/>
<path fill-rule="evenodd" clip-rule="evenodd" d="M5.82698 9.43555L5.98024 9.92537L6.47908 9.91936L6.0734 10.2199L6.23567 10.7067L5.82698 10.4062L5.4243 10.7067L5.57756 10.2199L5.17188 9.91936L5.67673 9.92537L5.82698 9.43555Z" fill="#F1F2F2"/>
<path fill-rule="evenodd" clip-rule="evenodd" d="M0.120851 9.43555L0.277115 9.92537L0.775957 9.91936L0.370272 10.2199L0.526536 10.7067L0.120851 10.4062L-0.281829 10.7067L-0.125565 10.2199L-0.53125 9.91936L-0.0324078 9.92537L0.120851 9.43555Z" fill="#F1F2F2"/>
<path fill-rule="evenodd" clip-rule="evenodd" d="M2.96851 9.43555L3.12778 9.92537L3.62662 9.91936L3.22093 10.2199L3.37419 10.7067L2.96851 10.4062L2.56883 10.7067L2.7251 10.2199L2.31641 9.91936L2.81525 9.92537L2.96851 9.43555Z" fill="#F1F2F2"/>
<path fill-rule="evenodd" clip-rule="evenodd" d="M8.69026 9.43555L8.84352 9.92537L9.34537 9.91936L8.93968 10.2199L9.08994 10.7067L8.69026 10.4062L8.28458 10.7067L8.44084 10.2199L8.03516 9.91936L8.537 9.92537L8.69026 9.43555Z" fill="#F1F2F2"/>
<path fill-rule="evenodd" clip-rule="evenodd" d="M5.82698 7.02344L5.98024 7.51326H6.47908L6.0734 7.80776L6.23567 8.29458L5.82698 7.99408L5.4243 8.29458L5.57756 7.80776L5.17188 7.51326H5.67673L5.82698 7.02344Z" fill="#F1F2F2"/>
<path fill-rule="evenodd" clip-rule="evenodd" d="M0.120851 7.02344L0.277115 7.51326H0.775957L0.370272 7.80776L0.526536 8.29458L0.120851 7.99408L-0.281829 8.29458L-0.125565 7.80776L-0.53125 7.51326H-0.0324078L0.120851 7.02344Z" fill="#F1F2F2"/>
<path fill-rule="evenodd" clip-rule="evenodd" d="M2.96851 7.02344L3.12778 7.51326H3.62662L3.22093 7.80776L3.37419 8.29458L2.96851 7.99408L2.56883 8.29458L2.7251 7.80776L2.31641 7.51326H2.81525L2.96851 7.02344Z" fill="#F1F2F2"/>
<path fill-rule="evenodd" clip-rule="evenodd" d="M8.69026 7.02344L8.84352 7.51326H9.34537L8.93968 7.80776L9.08994 8.29458L8.69026 7.99408L8.28458 8.29458L8.44084 7.80776L8.03516 7.51326H8.537L8.69026 7.02344Z" fill="#F1F2F2"/>
<path fill-rule="evenodd" clip-rule="evenodd" d="M5.82698 4.59961L5.98024 5.08643H6.47908L6.0734 5.38694L6.23567 5.87376L5.82698 5.57025L5.4243 5.87376L5.57756 5.38694L5.17188 5.08643H5.67673L5.82698 4.59961Z" fill="#F1F2F2"/>
<path fill-rule="evenodd" clip-rule="evenodd" d="M0.120851 4.59961L0.277115 5.08643H0.775957L0.370272 5.38694L0.526536 5.87376L0.120851 5.57025L-0.281829 5.87376L-0.125565 5.38694L-0.53125 5.08643H-0.0324078L0.120851 4.59961Z" fill="#F1F2F2"/>
<path fill-rule="evenodd" clip-rule="evenodd" d="M2.96851 4.59961L3.12778 5.08643H3.62662L3.22093 5.38694L3.37419 5.87376L2.96851 5.57025L2.56883 5.87376L2.7251 5.38694L2.31641 5.08643H2.81525L2.96851 4.59961Z" fill="#F1F2F2"/>
<path fill-rule="evenodd" clip-rule="evenodd" d="M8.69026 4.59961L8.84352 5.08643H9.34537L8.93968 5.38694L9.08994 5.87376L8.69026 5.57025L8.28458 5.87376L8.44084 5.38694L8.03516 5.08643H8.537L8.69026 4.59961Z" fill="#F1F2F2"/>
<path fill-rule="evenodd" clip-rule="evenodd" d="M5.82698 2.18555L5.98024 2.67237H6.47908L6.0734 2.96987L6.23567 3.45669L5.82698 3.15318L5.4243 3.45669L5.57756 2.96987L5.17188 2.67237H5.67673L5.82698 2.18555Z" fill="#F1F2F2"/>
<path fill-rule="evenodd" clip-rule="evenodd" d="M0.120851 2.18555L0.277115 2.67237H0.775957L0.370272 2.96987L0.526536 3.45669L0.120851 3.15318L-0.281829 3.45669L-0.125565 2.96987L-0.53125 2.67237H-0.0324078L0.120851 2.18555Z" fill="#F1F2F2"/>
<path fill-rule="evenodd" clip-rule="evenodd" d="M2.96851 2.18555L3.12778 2.67237H3.62662L3.22093 2.96987L3.37419 3.45669L2.96851 3.15318L2.56883 3.45669L2.7251 2.96987L2.31641 2.67237H2.81525L2.96851 2.18555Z" fill="#F1F2F2"/>
<path fill-rule="evenodd" clip-rule="evenodd" d="M8.69026 2.18555L8.84352 2.67237H9.34537L8.93968 2.96987L9.08994 3.45669L8.69026 3.15318L8.28458 3.45669L8.44084 2.96987L8.03516 2.67237H8.537L8.69026 2.18555Z" fill="#F1F2F2"/>
</g>
<defs>
<clipPath id="clip0_2617_35881">
<rect width="24" height="24" rx="12" fill="white"/>
</clipPath>
</defs>
</svg>
