<svg width="24" height="24" viewBox="0 0 24 24" fill="none" xmlns="http://www.w3.org/2000/svg">
<path fill-rule="evenodd" clip-rule="evenodd" d="M17.7098 9.8549C17.7098 14.193 14.193 17.7098 9.8549 17.7098C5.51676 17.7098 2 14.193 2 9.8549C2 5.51676 5.51676 2 9.8549 2C14.193 2 17.7098 5.51676 17.7098 9.8549ZM19.7098 9.8549C19.7098 15.2976 15.2976 19.7098 9.8549 19.7098C4.41219 19.7098 0 15.2976 0 9.8549C0 4.41219 4.41219 0 9.8549 0C15.2976 0 19.7098 4.41219 19.7098 9.8549ZM17.2929 18.7071L22.5851 23.9993L23.9993 22.5851L18.7071 17.2929L17.2929 18.7071Z" fill="#B32D26"/>
</svg>
