<svg width="40" height="40" viewBox="0 0 40 40" fill="none" xmlns="http://www.w3.org/2000/svg">
<rect x="8" y="8" width="24" height="24" rx="6" fill="white"/>
<path fill-rule="evenodd" clip-rule="evenodd" d="M20 16C17.7909 16 16 17.7909 16 20C16 22.2091 17.7909 24 20 24C22.2091 24 24 22.2091 24 20C24 17.7909 22.2091 16 20 16ZM14 20C14 16.6863 16.6863 14 20 14C23.3137 14 26 16.6863 26 20C26 23.3137 23.3137 26 20 26C16.6863 26 14 23.3137 14 20Z" fill="black"/>
<path d="M26.4969 15.0032C27.3253 15.0032 27.9969 14.3316 27.9969 13.5032C27.9969 12.6747 27.3253 12.0032 26.4969 12.0032C25.6685 12.0032 24.9969 12.6747 24.9969 13.5032C24.9969 14.3316 25.6685 15.0032 26.4969 15.0032Z" fill="black"/>
</svg>
