<svg width="20" height="20" viewBox="0 0 20 20" fill="none" xmlns="http://www.w3.org/2000/svg">
<circle cx="10" cy="10" r="8.16667" stroke="white" stroke-width="1.66667"/>
<path d="M13.05 10C13.05 12.416 12.6406 14.5704 12.0055 16.0947C11.6873 16.8584 11.3262 17.4308 10.961 17.8015C10.5982 18.1697 10.2739 18.3 10 18.3C9.72608 18.3 9.40176 18.1697 9.039 17.8015C8.67381 17.4308 8.31272 16.8584 7.9945 16.0947C7.35935 14.5704 6.95 12.416 6.95 10C6.95 7.58404 7.35935 5.42963 7.9945 3.90527C8.31272 3.14156 8.67381 2.56922 9.039 2.19851C9.40176 1.83027 9.72608 1.7 10 1.7C10.2739 1.7 10.5982 1.83027 10.961 2.19851C11.3262 2.56922 11.6873 3.14156 12.0055 3.90527C12.6406 5.42963 13.05 7.58404 13.05 10Z" stroke="white" stroke-width="1.4"/>
<path d="M1.76562 7.75H18.2656" stroke="white" stroke-width="1.4"/>
<path d="M1.76562 12.25H18.2656" stroke="white" stroke-width="1.4"/>
</svg>
