<svg width="20" height="20" viewBox="0 0 20 20" fill="none" xmlns="http://www.w3.org/2000/svg">
<g clip-path="url(#clip0_1998_14285)">
<path d="M16.3743 6.95113C17.6859 5.63952 17.7218 3.55378 16.4573 2.28935C15.1929 1.02493 13.1072 1.06081 11.7955 2.37242" stroke="black" stroke-miterlimit="10"/>
<path d="M3.32031 10.8516C1.63589 12.536 1.76694 15.3987 3.61604 17.2478C5.46513 19.0969 8.32785 19.2279 10.0123 17.5435" stroke="black" stroke-miterlimit="10"/>
<path d="M17.3281 10.2266L10.0143 17.5404" stroke="black" stroke-miterlimit="10"/>
<path d="M16.375 6.96094L8.24098 15.095" stroke="black" stroke-miterlimit="10"/>
<path d="M11.7969 2.375L3.3036 10.8683" stroke="black" stroke-miterlimit="10"/>
<path d="M12.9961 5.40625L5.77376 12.6286" stroke="black" stroke-miterlimit="10"/>
<path d="M5.94531 12.4531C5.2912 13.1072 5.31207 14.1923 5.99183 14.8721C6.67159 15.5518 7.75666 15.5727 8.41077 14.9186" stroke="black" stroke-miterlimit="10"/>
</g>
<defs>
<clipPath id="clip0_1998_14285">
<rect width="20" height="20" fill="white"/>
</clipPath>
</defs>
</svg>
