<svg width="24" height="24" viewBox="0 0 24 24" fill="none" xmlns="http://www.w3.org/2000/svg">
<path fill-rule="evenodd" clip-rule="evenodd" d="M17.7093 9.85465C17.7093 14.1928 14.1925 17.7096 9.85441 17.7096C5.51627 17.7096 1.99951 14.1928 1.99951 9.85465C1.99951 5.51651 5.51627 1.99976 9.85441 1.99976C14.1925 1.99976 17.7093 5.51651 17.7093 9.85465ZM19.7093 9.85465C19.7093 15.2974 15.2971 19.7096 9.85441 19.7096C4.4117 19.7096 -0.000488281 15.2974 -0.000488281 9.85465C-0.000488281 4.41194 4.4117 -0.000244141 9.85441 -0.000244141C15.2971 -0.000244141 19.7093 4.41194 19.7093 9.85465ZM17.2937 18.708L22.5859 24.0002L24.0002 22.5859L18.708 17.2937L17.2937 18.708Z" fill="#B32D26"/>
</svg>
