<svg width="40" height="40" viewBox="0 0 40 40" fill="none" xmlns="http://www.w3.org/2000/svg">
<path fill-rule="evenodd" clip-rule="evenodd" d="M8 14C8 10.6863 10.6863 8 14 8H26C29.3137 8 32 10.6863 32 14V26C32 29.3137 29.3137 32 26 32H14C10.6863 32 8 29.3137 8 26V14ZM20 16C17.7909 16 16 17.7909 16 20C16 22.2091 17.7909 24 20 24C22.2091 24 24 22.2091 24 20C24 17.7909 22.2091 16 20 16ZM14 20C14 16.6863 16.6863 14 20 14C23.3137 14 26 16.6863 26 20C26 23.3137 23.3137 26 20 26C16.6863 26 14 23.3137 14 20ZM27.9961 13.5039C27.9961 14.3323 27.3245 15.0039 26.4961 15.0039C25.6677 15.0039 24.9961 14.3323 24.9961 13.5039C24.9961 12.6755 25.6677 12.0039 26.4961 12.0039C27.3245 12.0039 27.9961 12.6755 27.9961 13.5039Z" fill="#666666"/>
</svg>
