<svg width="40" height="40" viewBox="0 0 40 40" fill="none" xmlns="http://www.w3.org/2000/svg">
<path fill-rule="evenodd" clip-rule="evenodd" d="M10 15C10 12.2386 12.2386 10 15 10H25C27.7614 10 30 12.2386 30 15V25C30 27.7614 27.7614 30 25 30H15C12.2386 30 10 27.7614 10 25V15ZM20 16.6667C18.1591 16.6667 16.6667 18.1591 16.6667 20C16.6667 21.8409 18.1591 23.3333 20 23.3333C21.8409 23.3333 23.3333 21.8409 23.3333 20C23.3333 18.1591 21.8409 16.6667 20 16.6667ZM15 20C15 17.2386 17.2386 15 20 15C22.7614 15 25 17.2386 25 20C25 22.7614 22.7614 25 20 25C17.2386 25 15 22.7614 15 20ZM26.6641 14.5859C26.6641 15.2763 26.1044 15.8359 25.4141 15.8359C24.7237 15.8359 24.1641 15.2763 24.1641 14.5859C24.1641 13.8956 24.7237 13.3359 25.4141 13.3359C26.1044 13.3359 26.6641 13.8956 26.6641 14.5859Z" fill="#ED2222"/>
</svg>
