<svg width="24" height="24" viewBox="0 0 24 24" fill="none" xmlns="http://www.w3.org/2000/svg">
<g clip-path="url(#clip0_2609_77326)">
<rect x="3" y="3" width="18" height="18" rx="9" fill="white"/>
<path d="M25.86 15.4531H-1.08203V16.8415H25.86V15.4531Z" fill="#F1F2F2"/>
<path d="M25.8594 4.36621H11.6875V5.75456H25.8594V4.36621Z" fill="#F1F2F2"/>
<path d="M25.8572 7.14062H11.6875V8.52672H25.8572V7.14062Z" fill="#F1F2F2"/>
<path d="M25.8572 9.91113H11.6875V11.2995H25.8572V9.91113Z" fill="#F1F2F2"/>
<path d="M25.86 12.6855H-1.08203V14.0716H25.86V12.6855Z" fill="#F1F2F2"/>
<path d="M25.86 18.2275H-1.08203V19.6136H25.86V18.2275Z" fill="#F1F2F2"/>
<path d="M25.86 16.8389H-1.08203V18.225H25.86V16.8389Z" fill="#E10E00"/>
<path d="M25.8594 5.75195H11.6875V7.13804H25.8594V5.75195Z" fill="#E10E00"/>
<path d="M25.8594 3H11.6875V4.36355H25.8594V3Z" fill="#E10E00"/>
<path d="M25.8594 8.52637H11.6875V9.9102H25.8594V8.52637Z" fill="#E10E00"/>
<path d="M25.8594 11.2969H11.6875V12.6852H25.8594V11.2969Z" fill="#E10E00"/>
<path d="M25.86 14.0713H-1.08203V15.4551H25.86V14.0713Z" fill="#E10E00"/>
<path d="M25.86 19.6133H-1.08203V20.9994H25.86V19.6133Z" fill="#E10E00"/>
<path d="M11.6841 3H-1.08594V12.6823H11.6841V3Z" fill="#000D7F"/>
<path fill-rule="evenodd" clip-rule="evenodd" d="M-0.107979 3.73145L0.00696498 4.09656L0.381097 4.09205L0.0790867 4.31743L0.194031 4.68481L-0.110233 4.45717L-0.412243 4.68481L-0.297299 4.31743L-0.601562 4.09205L-0.225177 4.09656L-0.112487 3.73145H-0.107979ZM8.45874 3.73145L8.57368 4.09656L8.94781 4.09205L8.6458 4.31743L8.76075 4.68481L8.45648 4.45717L8.15447 4.68481L8.26942 4.31743L7.96741 4.09205L8.34154 4.09656L8.45423 3.73145H8.45874ZM10.5908 3.73145L10.7058 4.09656L11.0844 4.09205L10.7779 4.31743L10.8951 4.68481L10.5908 4.45717L10.2888 4.68481L10.406 4.31743L10.0995 4.09205L10.4736 4.09656L10.5886 3.73145H10.5908ZM4.172 3.73145L4.28694 4.09656L4.66107 4.09205L4.35681 4.31743L4.47401 4.68481L4.16974 4.45717L3.86773 4.68481L3.98268 4.31743L3.67841 4.09205L4.05255 4.09656L4.16749 3.73145H4.172ZM2.02412 3.73145L2.13906 4.09656L2.5132 4.09205L2.20893 4.31743L2.32613 4.68481L2.02187 4.45717L1.7176 4.68481L1.83705 4.31743L1.53054 4.09205L1.90467 4.09656L2.01961 3.73145H2.02412ZM6.30635 3.73145L6.41904 4.09656L6.79317 4.09205L6.48891 4.31743L6.60611 4.68481L6.3041 4.45717L5.99983 4.68481L6.11478 4.31743L5.81051 4.09205L6.18239 4.09656L6.30184 3.73145H6.30635Z" fill="#F1F2F2"/>
<path fill-rule="evenodd" clip-rule="evenodd" d="M-0.107979 5.54688L0.00696498 5.91425H0.381097L0.0790867 6.13963L0.194031 6.50249L-0.110233 6.27711L-0.412243 6.50249L-0.297299 6.13963L-0.601562 5.91425H-0.225177L-0.112487 5.54688H-0.107979ZM8.45874 5.54688L8.57368 5.91425H8.94781L8.6458 6.13963L8.76075 6.50249L8.45648 6.27711L8.15447 6.50249L8.26942 6.13963L7.96741 5.91425H8.34154L8.45423 5.54688H8.45874ZM10.5908 5.54688L10.7058 5.91425H11.0844L10.7779 6.13963L10.8951 6.50249L10.5908 6.27711L10.2888 6.50249L10.406 6.13963L10.0995 5.91425H10.4736L10.5886 5.54688H10.5908ZM4.172 5.54688L4.28694 5.91425H4.66107L4.35681 6.13963L4.47401 6.50249L4.16974 6.27711L3.86773 6.50249L3.98268 6.13963L3.67841 5.91425H4.05255L4.16749 5.54688H4.172ZM2.02412 5.54688L2.13906 5.91425H2.5132L2.20893 6.13963L2.32613 6.50249L2.02187 6.27711L1.7176 6.50249L1.83705 6.13963L1.53054 5.91425H1.90467L2.01961 5.54688H2.02412ZM6.30635 5.54688L6.41904 5.91425H6.79317L6.48891 6.13963L6.60611 6.50249L6.3041 6.27711L5.99983 6.50249L6.11478 6.13963L5.81051 5.91425H6.18239L6.30184 5.54688H6.30635Z" fill="#F1F2F2"/>
<path fill-rule="evenodd" clip-rule="evenodd" d="M-0.107979 7.33398L0.00696498 7.6991H0.381097L0.0790867 7.92223L0.194031 8.2896L-0.110233 8.06196L-0.412243 8.2896L-0.297299 7.92223L-0.601562 7.69685H-0.225177L-0.112487 7.33398H-0.107979ZM8.45874 7.33398L8.57368 7.6991H8.94781L8.6458 7.92223L8.76075 8.2896L8.45648 8.06196L8.15447 8.2896L8.26942 7.92223L7.96741 7.69685H8.34154L8.45423 7.33398H8.45874ZM10.5908 7.33398L10.7058 7.6991H11.0844L10.7779 7.92223L10.8951 8.2896L10.5908 8.06196L10.2888 8.2896L10.406 7.92223L10.0995 7.69685H10.4736L10.5886 7.33398H10.5908ZM4.172 7.33398L4.28694 7.6991H4.66107L4.35681 7.92223L4.47401 8.2896L4.16974 8.06196L3.86773 8.2896L3.98268 7.92223L3.67841 7.69685H4.05255L4.16749 7.33398H4.172ZM2.02412 7.33398L2.13906 7.6991H2.5132L2.20893 7.92223L2.32613 8.2896L2.02187 8.06196L1.7176 8.2896L1.83705 7.92223L1.53054 7.69685H1.90467L2.01961 7.33398H2.02412ZM6.30635 7.33398L6.41904 7.6991H6.79317L6.48891 7.92223L6.60611 8.2896L6.3041 8.06196L5.99983 8.2896L6.11478 7.92223L5.81051 7.69685H6.18239L6.30184 7.33398H6.30635Z" fill="#F1F2F2"/>
<path fill-rule="evenodd" clip-rule="evenodd" d="M-0.107979 9.16211L0.00696498 9.52723H0.381097L0.0790867 9.75486L0.194031 10.1155L-0.110233 9.89009L-0.412243 10.1155L-0.297299 9.75486L-0.601562 9.52723H-0.225177L-0.112487 9.16211H-0.107979ZM8.45874 9.16211L8.57368 9.52723H8.94781L8.6458 9.75486L8.76075 10.1155L8.45648 9.89009L8.15447 10.1155L8.26942 9.75486L7.96741 9.52723H8.34154L8.45423 9.16211H8.45874ZM10.5908 9.16211L10.7058 9.52723H11.0844L10.7779 9.75486L10.8951 10.1155L10.5908 9.89009L10.2888 10.1155L10.406 9.75486L10.0995 9.52723H10.4736L10.5886 9.16211H10.5908ZM4.172 9.16211L4.28694 9.52723H4.66107L4.35681 9.75486L4.47401 10.1155L4.16974 9.89009L3.86773 10.1155L3.98268 9.75486L3.67841 9.52723H4.05255L4.16749 9.16211H4.172ZM2.02412 9.16211L2.13906 9.52723H2.5132L2.20893 9.75486L2.32613 10.1155L2.02187 9.89009L1.7176 10.1155L1.83705 9.75486L1.53054 9.52723H1.90467L2.01961 9.16211H2.02412ZM6.30635 9.16211L6.41904 9.52723H6.79317L6.48891 9.75486L6.60611 10.1155L6.3041 9.89009L5.99983 10.1155L6.11478 9.75486L5.81051 9.52723H6.18239L6.30184 9.16211H6.30635Z" fill="#F1F2F2"/>
<path fill-rule="evenodd" clip-rule="evenodd" d="M-0.107979 10.9678L0.00696498 11.3351H0.381097L0.0790867 11.556L0.194031 11.9234L-0.110233 11.6958L-0.412243 11.9234L-0.297299 11.556L-0.601562 11.3351H-0.225177L-0.112487 10.9678H-0.107979ZM8.45874 10.9678L8.57368 11.3351H8.94781L8.6458 11.556L8.76075 11.9234L8.45648 11.6958L8.15447 11.9234L8.26942 11.556L7.96741 11.3351H8.34154L8.45423 10.9678H8.45874ZM10.5908 10.9678L10.7058 11.3351H11.0844L10.7779 11.556L10.8951 11.9234L10.5908 11.6958L10.2888 11.9234L10.406 11.556L10.0995 11.3351H10.4736L10.5886 10.9678H10.5908ZM4.172 10.9678L4.28694 11.3351H4.66107L4.35681 11.556L4.47401 11.9234L4.16974 11.6958L3.86773 11.9234L3.98268 11.556L3.67841 11.3351H4.05255L4.16749 10.9678H4.172ZM2.02412 10.9678L2.13906 11.3351H2.5132L2.20893 11.556L2.32613 11.9234L2.02187 11.6958L1.7176 11.9234L1.83705 11.556L1.53054 11.3351H1.90467L2.01961 10.9678H2.02412ZM6.30635 10.9678L6.41904 11.3351H6.79317L6.48891 11.556L6.60611 11.9234L6.3041 11.6958L5.99983 11.9234L6.11478 11.556L5.81051 11.3351H6.18239L6.30184 10.9678H6.30635Z" fill="#F1F2F2"/>
<path fill-rule="evenodd" clip-rule="evenodd" d="M7.37024 10.0762L7.48518 10.4435L7.85931 10.439L7.55505 10.6644L7.67675 11.0295L7.37024 10.8042L7.06823 11.0295L7.18317 10.6644L6.87891 10.439L7.25754 10.4435L7.37024 10.0762Z" fill="#F1F2F2"/>
<path fill-rule="evenodd" clip-rule="evenodd" d="M3.09064 10.0762L3.20784 10.4435L3.58197 10.439L3.2777 10.6644L3.3949 11.0295L3.09064 10.8042L2.78863 11.0295L2.90583 10.6644L2.60156 10.439L2.97569 10.4435L3.09064 10.0762Z" fill="#F1F2F2"/>
<path fill-rule="evenodd" clip-rule="evenodd" d="M5.22736 10.0762L5.34681 10.4435L5.72094 10.439L5.41668 10.6644L5.53162 11.0295L5.22736 10.8042L4.9276 11.0295L5.0448 10.6644L4.73828 10.439L5.11241 10.4435L5.22736 10.0762Z" fill="#F1F2F2"/>
<path fill-rule="evenodd" clip-rule="evenodd" d="M9.51867 10.0762L9.63362 10.4435L10.01 10.439L9.70574 10.6644L9.81843 11.0295L9.51867 10.8042L9.21441 11.0295L9.33161 10.6644L9.02734 10.439L9.40373 10.4435L9.51867 10.0762Z" fill="#F1F2F2"/>
<path fill-rule="evenodd" clip-rule="evenodd" d="M7.37024 8.2666L7.48518 8.63397H7.85931L7.55505 8.85484L7.67675 9.21996L7.37024 8.99458L7.06823 9.21996L7.18317 8.85484L6.87891 8.63397H7.25754L7.37024 8.2666Z" fill="#F1F2F2"/>
<path fill-rule="evenodd" clip-rule="evenodd" d="M3.09064 8.2666L3.20784 8.63397H3.58197L3.2777 8.85484L3.3949 9.21996L3.09064 8.99458L2.78863 9.21996L2.90583 8.85484L2.60156 8.63397H2.97569L3.09064 8.2666Z" fill="#F1F2F2"/>
<path fill-rule="evenodd" clip-rule="evenodd" d="M5.22736 8.2666L5.34681 8.63397H5.72094L5.41668 8.85484L5.53162 9.21996L5.22736 8.99458L4.9276 9.21996L5.0448 8.85484L4.73828 8.63397H5.11241L5.22736 8.2666Z" fill="#F1F2F2"/>
<path fill-rule="evenodd" clip-rule="evenodd" d="M9.51867 8.2666L9.63362 8.63397H10.01L9.70574 8.85484L9.81843 9.21996L9.51867 8.99458L9.21441 9.21996L9.33161 8.85484L9.02734 8.63397H9.40373L9.51867 8.2666Z" fill="#F1F2F2"/>
<path fill-rule="evenodd" clip-rule="evenodd" d="M7.37024 6.44824L7.48518 6.81336H7.85931L7.55505 7.03874L7.67675 7.40386L7.37024 7.17622L7.06823 7.40386L7.18317 7.03874L6.87891 6.81336H7.25754L7.37024 6.44824Z" fill="#F1F2F2"/>
<path fill-rule="evenodd" clip-rule="evenodd" d="M3.09064 6.44824L3.20784 6.81336H3.58197L3.2777 7.03874L3.3949 7.40386L3.09064 7.17622L2.78863 7.40386L2.90583 7.03874L2.60156 6.81336H2.97569L3.09064 6.44824Z" fill="#F1F2F2"/>
<path fill-rule="evenodd" clip-rule="evenodd" d="M5.22736 6.44824L5.34681 6.81336H5.72094L5.41668 7.03874L5.53162 7.40386L5.22736 7.17622L4.9276 7.40386L5.0448 7.03874L4.73828 6.81336H5.11241L5.22736 6.44824Z" fill="#F1F2F2"/>
<path fill-rule="evenodd" clip-rule="evenodd" d="M9.51867 6.44824L9.63362 6.81336H10.01L9.70574 7.03874L9.81843 7.40386L9.51867 7.17622L9.21441 7.40386L9.33161 7.03874L9.02734 6.81336H9.40373L9.51867 6.44824Z" fill="#F1F2F2"/>
<path fill-rule="evenodd" clip-rule="evenodd" d="M7.37024 4.63965L7.48518 5.00476H7.85931L7.55505 5.22789L7.67675 5.59301L7.37024 5.36537L7.06823 5.59301L7.18317 5.22789L6.87891 5.00476H7.25754L7.37024 4.63965Z" fill="#F1F2F2"/>
<path fill-rule="evenodd" clip-rule="evenodd" d="M3.09064 4.63965L3.20784 5.00476H3.58197L3.2777 5.22789L3.3949 5.59301L3.09064 5.36537L2.78863 5.59301L2.90583 5.22789L2.60156 5.00476H2.97569L3.09064 4.63965Z" fill="#F1F2F2"/>
<path fill-rule="evenodd" clip-rule="evenodd" d="M5.22736 4.63965L5.34681 5.00476H5.72094L5.41668 5.22789L5.53162 5.59301L5.22736 5.36537L4.9276 5.59301L5.0448 5.22789L4.73828 5.00476H5.11241L5.22736 4.63965Z" fill="#F1F2F2"/>
<path fill-rule="evenodd" clip-rule="evenodd" d="M9.51867 4.63965L9.63362 5.00476H10.01L9.70574 5.22789L9.81843 5.59301L9.51867 5.36537L9.21441 5.59301L9.33161 5.22789L9.02734 5.00476H9.40373L9.51867 4.63965Z" fill="#F1F2F2"/>
</g>
<defs>
<clipPath id="clip0_2609_77326">
<rect x="3" y="3" width="18" height="18" rx="9" fill="white"/>
</clipPath>
</defs>
</svg>
