<svg width="24" height="24" viewBox="0 0 24 24" fill="none" xmlns="http://www.w3.org/2000/svg">
<circle cx="12" cy="12" r="8.25" stroke="#B32D26" stroke-width="1.5"/>
<path d="M15 12C15 14.411 14.5914 16.5586 13.9593 18.0755C13.6426 18.8356 13.2846 19.4017 12.9254 19.7664C12.5688 20.1284 12.2565 20.25 12 20.25C11.7435 20.25 11.4312 20.1284 11.0746 19.7664C10.7154 19.4017 10.3574 18.8356 10.0407 18.0755C9.40861 16.5586 9 14.411 9 12C9 9.58899 9.40861 7.44141 10.0407 5.9245C10.3574 5.16441 10.7154 4.59826 11.0746 4.2336C11.4312 3.87159 11.7435 3.75 12 3.75C12.2565 3.75 12.5688 3.87159 12.9254 4.2336C13.2846 4.59826 13.6426 5.16441 13.9593 5.9245C14.5914 7.44141 15 9.58899 15 12Z" stroke="#B32D26" stroke-width="1.5"/>
<path d="M3.76562 9.74902H20.2656" stroke="#B32D26" stroke-width="1.5"/>
<path d="M3.76562 14.249H20.2656" stroke="#B32D26" stroke-width="1.5"/>
</svg>
