<svg width="80" height="80" viewBox="0 0 80 80" fill="none" xmlns="http://www.w3.org/2000/svg">
<path d="M37.6641 44.6719C40.4255 44.6719 42.6641 42.4333 42.6641 39.6719C42.6641 36.9105 40.4255 34.6719 37.6641 34.6719C34.9026 34.6719 32.6641 36.9105 32.6641 39.6719C32.6641 42.4333 34.9026 44.6719 37.6641 44.6719Z" stroke="black" stroke-width="2" stroke-linejoin="round"/>
<path d="M47.4457 55.2138C44.4661 57.1259 40.9288 58.2412 37.1206 58.2412C26.5565 58.2412 18 49.6848 18 39.1206C18 28.5565 26.5565 20 37.1206 20C47.6848 20 56.1775 28.5565 56.1775 39.1206" stroke="black" stroke-width="2" stroke-linejoin="round"/>
<path d="M27.9922 36.2866C29.2032 32.3987 32.8361 29.5625 37.1223 29.5625" stroke="black" stroke-width="2" stroke-linecap="round"/>
<path d="M23.4766 34.6921C25.3408 28.94 30.7424 24.7812 37.1159 24.7812" stroke="black" stroke-width="2" stroke-linecap="round"/>
<path d="M56.9333 48.1538V38H47.0667V48.1538H42L52 60L62 48.1538H56.9333Z" fill="#F3F3F3" stroke="black" stroke-width="2"/>
</svg>
