<svg width="60" height="60" viewBox="0 0 60 60" fill="none" xmlns="http://www.w3.org/2000/svg">
<rect width="60" height="60" rx="30" fill="black"/>
<path d="M15 18V17.3H14.3V18H15ZM45 18H45.7V17.3H45V18ZM15 38H14.3V38.7H15V38ZM27.7 38L28.3343 37.704L28.1458 37.3H27.7V38ZM30.5 44L29.8657 44.296L30.5 45.6553L31.1343 44.296L30.5 44ZM33.3 38V37.3H32.8542L32.6657 37.704L33.3 38ZM45 38V38.7H45.7V38H45ZM15 18.7H45V17.3H15V18.7ZM15.7 38V18H14.3V38H15.7ZM27.7 37.3H15V38.7H27.7V37.3ZM31.1343 43.704L28.3343 37.704L27.0657 38.296L29.8657 44.296L31.1343 43.704ZM32.6657 37.704L29.8657 43.704L31.1343 44.296L33.9343 38.296L32.6657 37.704ZM45 37.3H33.3V38.7H45V37.3ZM44.3 18V38H45.7V18H44.3Z" fill="white"/>
<path d="M29.464 29.948C29.4453 29.5093 29.4593 29.1453 29.506 28.856C29.562 28.5573 29.6693 28.296 29.828 28.072C29.996 27.8387 30.2247 27.6147 30.514 27.4L31.27 26.84C31.5127 26.6627 31.69 26.4947 31.802 26.336C31.914 26.1773 31.97 26.0233 31.97 25.874C31.97 25.6873 31.914 25.524 31.802 25.384C31.69 25.244 31.536 25.132 31.34 25.048C31.1533 24.964 30.934 24.922 30.682 24.922C30.2807 24.922 29.912 25.0293 29.576 25.244C29.2493 25.4587 29.016 25.7433 28.876 26.098L27.042 25.412C27.2193 24.9267 27.49 24.5113 27.854 24.166C28.218 23.8113 28.6473 23.536 29.142 23.34C29.646 23.144 30.1873 23.046 30.766 23.046C31.4193 23.046 32.0027 23.1673 32.516 23.41C33.0293 23.6433 33.4353 23.9607 33.734 24.362C34.0327 24.7633 34.182 25.2207 34.182 25.734C34.182 26.0793 34.126 26.3873 34.014 26.658C33.9113 26.9287 33.7293 27.1947 33.468 27.456C33.216 27.708 32.866 27.988 32.418 28.296L32.068 28.534C31.7973 28.7113 31.606 28.9073 31.494 29.122C31.3913 29.3273 31.3447 29.6027 31.354 29.948H29.464ZM30.416 33.154C30.0613 33.154 29.7533 33.028 29.492 32.776C29.24 32.5147 29.114 32.2067 29.114 31.852C29.114 31.4973 29.24 31.194 29.492 30.942C29.7533 30.6807 30.0613 30.55 30.416 30.55C30.7707 30.55 31.074 30.6807 31.326 30.942C31.5873 31.194 31.718 31.4973 31.718 31.852C31.718 32.2067 31.5873 32.5147 31.326 32.776C31.074 33.028 30.7707 33.154 30.416 33.154Z" fill="white"/>
</svg>
