<svg width="60" height="60" viewBox="0 0 60 60" fill="none" xmlns="http://www.w3.org/2000/svg">
<rect width="60" height="60" rx="30" fill="black"/>
<path d="M40.0782 26.4651C40.0782 27.8685 39.4432 29.629 38.4014 31.5414C37.3699 33.4347 35.9859 35.3947 34.5887 37.1749C33.1935 38.9525 31.7965 40.5364 30.7474 41.6767C30.2338 42.235 29.8043 42.6861 29.5004 43.0004C29.1966 42.6861 28.7671 42.235 28.2534 41.6767C27.2044 40.5364 25.8074 38.9525 24.4122 37.1749C23.015 35.3947 21.631 33.4347 20.5995 31.5414C19.5577 29.629 18.9227 27.8685 18.9227 26.4651C18.9227 20.5088 23.6693 15.7 29.5004 15.7C35.3316 15.7 40.0782 20.5088 40.0782 26.4651Z" stroke="white" stroke-width="1.4"/>
<circle cx="29.5003" cy="27.3519" r="4.13333" stroke="white" stroke-width="1.4"/>
</svg>
