<svg width="40" height="40" viewBox="0 0 40 40" fill="none" xmlns="http://www.w3.org/2000/svg">
<path fill-rule="evenodd" clip-rule="evenodd" d="M28.6507 16.3246C28.6507 23.1313 23.1327 28.6492 16.326 28.6492C9.51934 28.6492 4.00142 23.1313 4.00142 16.3246C4.00142 9.51788 9.51934 3.99996 16.326 3.99996C23.1327 3.99996 28.6507 9.51788 28.6507 16.3246ZM32.6506 16.3246C32.6506 25.3404 25.3419 32.6492 16.326 32.6492C7.31023 32.6492 0.00146484 25.3404 0.00146484 16.3246C0.00146484 7.30876 7.31023 0 16.326 0C25.3419 0 32.6506 7.30876 32.6506 16.3246ZM28.405 31.2327L37.1715 39.9992L39.9999 37.1708L31.2334 28.4043L28.405 31.2327Z" fill="black"/>
</svg>
