<svg width="60" height="60" viewBox="0 0 60 60" fill="none" xmlns="http://www.w3.org/2000/svg">
<rect width="60" height="60" rx="30" fill="black"/>
<path d="M25.1668 28.3336C27.7442 28.3336 29.8336 26.2442 29.8336 23.6668C29.8336 21.0894 27.7442 19 25.1668 19C22.5894 19 20.5 21.0894 20.5 23.6668C20.5 26.2442 22.5894 28.3336 25.1668 28.3336Z" stroke="white" stroke-width="1.63337" stroke-linecap="round" stroke-linejoin="round"/>
<path d="M38.0001 27.1681C39.9331 27.1681 41.5002 25.6011 41.5002 23.6681C41.5002 21.735 39.9331 20.168 38.0001 20.168C36.067 20.168 34.5 21.735 34.5 23.6681C34.5 25.6011 36.067 27.1681 38.0001 27.1681Z" stroke="white" stroke-width="1.63337" stroke-linecap="round" stroke-linejoin="round"/>
<path d="M16 40C16 35.5771 20.0243 32 25 32C29.9757 32 34 35.5771 34 40" stroke="white" stroke-width="1.63337" stroke-linecap="round" stroke-linejoin="round"/>
<path d="M34.0469 32.725C35.1669 31.955 36.532 31.5 38.002 31.5C41.8638 31.5 45.0022 34.6384 45.0022 38.5002" stroke="white" stroke-width="1.63337" stroke-linecap="round" stroke-linejoin="round"/>
</svg>
