<svg width="36" height="36" viewBox="0 0 36 36" fill="none" xmlns="http://www.w3.org/2000/svg">
<rect x="0.160714" y="0.160714" width="35.6786" height="35.6786" rx="6.26786" fill="#F3F3F3" stroke="#D9D9D9" stroke-width="0.321429"/>
<path d="M28.7693 21.2152C28.7451 21.0392 28.6037 20.8184 28.4518 20.67C28.0171 20.2422 27.0613 20.0179 25.6053 19.9972C24.6185 19.9869 23.4316 20.0731 22.1826 20.2491C21.6236 19.9282 21.0474 19.5763 20.5954 19.1519C19.3774 18.0167 18.363 16.4399 17.7282 14.7044C17.7696 14.5422 17.8041 14.4008 17.8386 14.2558C17.8386 14.2558 18.5218 10.3639 18.3423 9.04583C18.3182 8.86641 18.3009 8.81465 18.2526 8.67319L18.194 8.52137C18.0077 8.09008 17.6419 7.63464 17.0692 7.65879L16.731 7.64844H16.7241C16.0824 7.64844 15.5648 7.97622 15.4268 8.46272C15.0128 9.99467 15.4406 12.2891 16.2169 15.2564L16.0168 15.7395C15.4613 17.0989 14.7643 18.4653 14.1502 19.6694L14.0708 19.8247C13.4222 21.091 12.8356 22.1675 12.3008 23.0784L11.7522 23.3682C11.7108 23.3889 10.7688 23.8892 10.548 24.0203C8.67448 25.1417 7.43236 26.4114 7.22534 27.4189C7.15978 27.7432 7.20809 28.1538 7.54277 28.3436L8.07412 28.6127C8.3053 28.7266 8.55027 28.7852 8.7987 28.7852C10.134 28.7852 11.6832 27.1222 13.8189 23.3958C16.2825 22.5953 19.0911 21.9259 21.5512 21.5602C23.4247 22.6126 25.7295 23.3475 27.1856 23.3475C27.4443 23.3475 27.6686 23.3233 27.848 23.275C28.1275 23.1991 28.3621 23.0404 28.507 22.8265C28.79 22.4021 28.8452 21.8155 28.7693 21.2152ZM8.50887 27.7743C8.75039 27.1084 9.71649 25.7903 11.1415 24.6241C11.2312 24.5517 11.452 24.3446 11.6521 24.1514C10.1616 26.5287 9.16443 27.4741 8.50887 27.7743ZM16.9484 8.33851C17.3762 8.33851 17.6212 9.41846 17.6419 10.4329C17.6626 11.4473 17.4245 12.158 17.1313 12.6859C16.8863 11.9062 16.769 10.6778 16.769 9.87391C16.769 9.87391 16.7517 8.33851 16.9484 8.33851ZM14.4297 22.1882C14.7298 21.6534 15.0404 21.0875 15.3578 20.4906C16.1341 19.0242 16.6241 17.8787 16.9864 16.9368C17.7109 18.2548 18.6149 19.3761 19.6742 20.2732C19.8087 20.3836 19.9502 20.4975 20.0951 20.6114C17.9386 21.0358 16.072 21.5568 14.4297 22.1882ZM28.0343 22.0674C27.9032 22.1468 27.5271 22.1951 27.2856 22.1951C26.5058 22.1951 25.5363 21.8397 24.1803 21.2566C24.7013 21.2186 25.1809 21.1979 25.6088 21.1979C26.392 21.1979 26.6232 21.1945 27.3926 21.3911C28.1586 21.5878 28.1689 21.9846 28.0343 22.0674Z" fill="#ED2222"/>
</svg>
