<svg width="24" height="24" viewBox="0 0 24 24" fill="none" xmlns="http://www.w3.org/2000/svg">
<path fill-rule="evenodd" clip-rule="evenodd" d="M21.1259 8.15947C17.4289 10.4865 17.779 15.8014 21.7754 17.6206C21.644 17.9686 21.5214 18.323 21.3775 18.6687C20.7813 20.1007 19.9437 21.3854 18.9457 22.5654C18.3907 23.2215 17.7418 23.7572 16.858 23.9097C16.1819 24.0263 15.539 23.8952 14.9074 23.6454C14.3911 23.4411 13.8746 23.2128 13.3363 23.0937C12.4103 22.8886 11.5009 23.0237 10.6152 23.3754C10.0588 23.5962 9.48902 23.7982 8.90833 23.939C8.20162 24.1103 7.5285 23.9118 6.98552 23.4575C6.45867 23.0167 5.9599 22.5242 5.52975 21.9894C3.81358 19.8553 2.7655 17.4168 2.36929 14.7084C2.09911 12.8615 2.16893 11.0322 3.01371 9.32769C4.1025 7.13075 5.86629 5.90821 8.36245 5.86297C9.02831 5.85095 9.65119 6.08036 10.2672 6.31128C10.7044 6.47516 11.1399 6.64403 11.5807 6.79726C11.9662 6.93121 12.3577 6.93175 12.7442 6.79042C13.3766 6.55914 14.0059 6.3193 14.6407 6.09503C16.871 5.30696 19.5762 6.079 20.9582 7.9225C21.0161 7.9997 21.0698 8.08007 21.1259 8.15947Z" fill="black"/>
<path fill-rule="evenodd" clip-rule="evenodd" d="M11.9875 5.56186C11.9018 4.95325 11.9554 4.41028 12.1243 3.88598C12.7889 1.82292 14.1804 0.540723 16.2961 0.0577938C16.8 -0.0572375 16.8102 -0.0386047 16.8097 0.4717C16.8072 2.74863 15.1181 4.94873 12.9785 5.44218C12.6612 5.51536 12.3286 5.52241 11.9875 5.56186Z" fill="black"/>
</svg>
