<svg width="24" height="24" viewBox="0 0 24 24" fill="none" xmlns="http://www.w3.org/2000/svg">
<path d="M16.52 21.6469C13.7917 21.1028 11.3324 20.6103 11.0547 20.5526L10.5499 20.4476V16.5633V12.6791L13.7764 12.7073C15.5509 12.7228 18.0795 12.7594 19.3953 12.7886L21.7877 12.8418V17.7483C21.7877 22.3663 21.7787 22.6543 21.6341 22.6456C21.5496 22.6404 19.2482 22.191 16.52 21.6469ZM5.72114 19.4954L2.34101 18.8328L2.31796 15.71L2.29492 12.5873L5.69809 12.6274C7.56984 12.6494 9.11157 12.6762 9.12417 12.687C9.13676 12.6978 9.13676 14.3832 9.12417 16.4324L9.10126 20.1581L5.72114 19.4954ZM2.29711 8.30032C2.29711 6.58611 2.30848 5.18358 2.32237 5.18358C2.33627 5.18358 3.82621 4.88727 5.63334 4.52511C7.44047 4.16296 8.96992 3.86665 9.0321 3.86665C9.12254 3.86665 9.14516 4.61048 9.14516 7.58402V11.3014L7.3673 11.359C6.38948 11.3907 4.84867 11.4167 3.94328 11.4168L2.29711 11.4171V8.30032ZM10.5499 7.45552V3.55345L16.0152 2.4742C19.0211 1.88062 21.5496 1.37556 21.6341 1.35185C21.7791 1.31116 21.7877 1.58734 21.7877 6.27511V11.2415H18.817C17.1831 11.2415 14.6546 11.2676 13.1981 11.2995L10.5499 11.3576V7.45552Z" fill="black"/>
</svg>
