<svg width="20" height="20" viewBox="0 0 20 20" fill="none" xmlns="http://www.w3.org/2000/svg">
<path d="M16.6923 10.5C16.6923 11.5807 17.0172 12.4687 17.7512 13.0428C18.1323 13.3409 18.5666 13.5071 19 13.5957V18H1V13.5957C1.43345 13.5071 1.86774 13.3409 2.24879 13.0428C2.98282 12.4687 3.30769 11.5807 3.30769 10.5C3.30769 9.41926 2.98282 8.53131 2.24879 7.95717C1.86774 7.65913 1.43345 7.49293 1 7.40426V3H19V7.40426C18.5666 7.49293 18.1323 7.65913 17.7512 7.95717C17.0172 8.53131 16.6923 9.41926 16.6923 10.5Z" stroke="black" stroke-width="2" stroke-miterlimit="10"/>
<path d="M12 5V8" stroke="black" stroke-linejoin="round"/>
<path d="M12 9V12" stroke="black" stroke-linejoin="round"/>
<path d="M12 13V16" stroke="black" stroke-linejoin="round"/>
</svg>
