<svg width="60" height="60" viewBox="0 0 60 60" fill="none" xmlns="http://www.w3.org/2000/svg">
<rect width="60" height="60" rx="30" fill="black"/>
<path d="M28.4427 33.1159C30.2837 33.1159 31.776 31.6235 31.776 29.7826C31.776 27.9416 30.2837 26.4492 28.4427 26.4492C26.6018 26.4492 25.1094 27.9416 25.1094 29.7826C25.1094 31.6235 26.6018 33.1159 28.4427 33.1159Z" stroke="white" stroke-width="1.4" stroke-linejoin="round"/>
<path d="M34.9625 40.1438C32.9761 41.4185 30.6179 42.1621 28.0791 42.1621C21.0363 42.1621 15.332 36.4578 15.332 29.415C15.332 22.3723 21.0363 16.668 28.0791 16.668C35.1219 16.668 40.7837 22.3723 40.7837 29.415" stroke="white" stroke-width="1.4" stroke-linejoin="round"/>
<path d="M21.9922 27.5257C22.7995 24.9338 25.2214 23.043 28.0789 23.043" stroke="white" stroke-width="1.4" stroke-linecap="round"/>
<path d="M18.9844 26.4627C20.2272 22.628 23.8283 19.8555 28.0773 19.8555" stroke="white" stroke-width="1.4" stroke-linecap="round"/>
<path d="M41.2876 35.4372V28.668H34.7098V35.4372H31.332L37.9987 43.3346L44.6654 35.4372H41.2876Z" stroke="white" stroke-width="1.4"/>
</svg>
