<svg width="60" height="60" viewBox="0 0 60 60" fill="none" xmlns="http://www.w3.org/2000/svg">
<rect width="60" height="60" rx="30" fill="black"/>
<mask id="path-2-inside-1_2903_71345" fill="white">
<path d="M21 16.5296C21 15.1326 22.1326 14 23.5296 14H36.4704C37.8674 14 39 15.1326 39 16.5296V42.4704C39 43.8674 37.8674 45 36.4704 45H23.5296C22.1326 45 21 43.8674 21 42.4704V16.5296Z"/>
</mask>
<path d="M23.5296 15.4H36.4704V12.6H23.5296V15.4ZM37.6 16.5296V42.4704H40.4V16.5296H37.6ZM36.4704 43.6H23.5296V46.4H36.4704V43.6ZM22.4 42.4704V16.5296H19.6V42.4704H22.4ZM23.5296 43.6C22.9058 43.6 22.4 43.0942 22.4 42.4704H19.6C19.6 44.6406 21.3594 46.4 23.5296 46.4V43.6ZM37.6 42.4704C37.6 43.0942 37.0942 43.6 36.4704 43.6V46.4C38.6406 46.4 40.4 44.6406 40.4 42.4704H37.6ZM36.4704 15.4C37.0942 15.4 37.6 15.9058 37.6 16.5296H40.4C40.4 14.3594 38.6406 12.6 36.4704 12.6V15.4ZM23.5296 12.6C21.3594 12.6 19.6 14.3594 19.6 16.5296H22.4C22.4 15.9058 22.9058 15.4 23.5296 15.4V12.6Z" fill="white" mask="url(#path-2-inside-1_2903_71345)"/>
<path d="M26 19H34" stroke="white" stroke-width="1.4"/>
<circle cx="30.0898" cy="38.4414" r="1.5" fill="white"/>
</svg>
