<svg width="40" height="41" viewBox="0 0 40 41" fill="none" xmlns="http://www.w3.org/2000/svg">
<rect x="8" y="8.33008" width="24" height="24" rx="6" fill="#666666"/>
<path fill-rule="evenodd" clip-rule="evenodd" d="M20 16.3301C17.7909 16.3301 16 18.1209 16 20.3301C16 22.5392 17.7909 24.3301 20 24.3301C22.2091 24.3301 24 22.5392 24 20.3301C24 18.1209 22.2091 16.3301 20 16.3301ZM14 20.3301C14 17.0164 16.6863 14.3301 20 14.3301C23.3137 14.3301 26 17.0164 26 20.3301C26 23.6438 23.3137 26.3301 20 26.3301C16.6863 26.3301 14 23.6438 14 20.3301Z" fill="white"/>
<path d="M26.4961 15.3333C27.3245 15.3333 27.9961 14.6617 27.9961 13.8333C27.9961 13.0048 27.3245 12.3333 26.4961 12.3333C25.6677 12.3333 24.9961 13.0048 24.9961 13.8333C24.9961 14.6617 25.6677 15.3333 26.4961 15.3333Z" fill="white"/>
</svg>
