<svg width="80" height="80" viewBox="0 0 80 80" fill="none" xmlns="http://www.w3.org/2000/svg">
<rect x="20" y="20" width="40" height="40" rx="10" fill="#666666"/>
<path fill-rule="evenodd" clip-rule="evenodd" d="M40 33.3333C36.3181 33.3333 33.3333 36.3181 33.3333 40C33.3333 43.6819 36.3181 46.6667 40 46.6667C43.6819 46.6667 46.6667 43.6819 46.6667 40C46.6667 36.3181 43.6819 33.3333 40 33.3333ZM30 40C30 34.4772 34.4772 30 40 30C45.5228 30 50 34.4772 50 40C50 45.5228 45.5228 50 40 50C34.4772 50 30 45.5228 30 40Z" fill="white"/>
<path d="M50.8281 31.6719C52.2088 31.6719 53.3281 30.5526 53.3281 29.1719C53.3281 27.7912 52.2088 26.6719 50.8281 26.6719C49.4474 26.6719 48.3281 27.7912 48.3281 29.1719C48.3281 30.5526 49.4474 31.6719 50.8281 31.6719Z" fill="white"/>
</svg>
