<svg width="32" height="32" viewBox="0 0 32 32" fill="none" xmlns="http://www.w3.org/2000/svg">
<path fill-rule="evenodd" clip-rule="evenodd" d="M12 8C9.79086 8 8 9.79086 8 12V20C8 22.2091 9.79086 24 12 24H20C22.2091 24 24 22.2091 24 20V12C24 9.79086 22.2091 8 20 8H12ZM20.3344 12.6656C20.8867 12.6656 21.3344 12.2179 21.3344 11.6656C21.3344 11.1133 20.8867 10.6656 20.3344 10.6656C19.7821 10.6656 19.3344 11.1133 19.3344 11.6656C19.3344 12.2179 19.7821 12.6656 20.3344 12.6656ZM16 13.3302C14.5272 13.3302 13.3333 14.5241 13.3333 15.9969C13.3333 17.4696 14.5272 18.6635 16 18.6635C17.4728 18.6635 18.6667 17.4696 18.6667 15.9969C18.6667 14.5241 17.4728 13.3302 16 13.3302ZM12 15.9969C12 13.7877 13.7909 11.9969 16 11.9969C18.2091 11.9969 20 13.7877 20 15.9969C20 18.206 18.2091 19.9969 16 19.9969C13.7909 19.9969 12 18.206 12 15.9969Z" fill="black"/>
</svg>
