<svg width="16" height="16" viewBox="0 0 16 16" fill="none" xmlns="http://www.w3.org/2000/svg">
<path d="M3.61145 2.21188L2.85368 3.57255C1.66447 5.71311 1.9355 6.9355 3.73866 8.73866L7.65473 12.6547C9.4579 14.4579 10.6803 14.7289 12.8208 13.5397L14.1815 12.782C14.5715 12.5635 14.6461 12.0352 14.3309 11.72L12.5885 9.97765C12.4586 9.84766 12.2428 9.84766 12.1129 9.97765L11.7146 10.3759C10.8822 11.2083 9.92351 10.6378 7.78571 8.5C5.64792 6.3622 5.18783 5.50846 6.01751 4.67878L6.41575 4.28054C6.5485 4.14779 6.5485 3.93761 6.41575 3.80486L4.67343 2.06254C4.35816 1.74726 3.82993 1.82193 3.61145 2.21188Z" stroke="#666666" stroke-width="1.4" stroke-linecap="round" stroke-linejoin="round"/>
</svg>
