<svg width="32" height="32" viewBox="0 0 32 32" fill="none" xmlns="http://www.w3.org/2000/svg">
<path d="M28.6 12.6512C28.6 14.0232 27.9394 15.8432 26.752 17.9296C25.5877 19.9754 24.0167 22.1075 22.4174 24.0581C20.8225 26.0033 19.2238 27.7386 18.0219 28.9892C17.6348 29.3919 17.2897 29.7435 17 30.0349C16.7103 29.7435 16.3652 29.3919 15.9781 28.9892C14.7762 27.7386 13.1775 26.0033 11.5826 24.0581C9.98329 22.1075 8.41231 19.9754 7.248 17.9296C6.06057 15.8432 5.4 14.0232 5.4 12.6512C5.4 6.47297 10.5574 1.4 17 1.4C23.4426 1.4 28.6 6.47297 28.6 12.6512Z" stroke="#666666" stroke-width="2.8"/>
<circle cx="17" cy="13" r="3.6" stroke="#666666" stroke-width="2.8"/>
</svg>
