<svg width="32" height="32" viewBox="0 0 32 32" fill="none" xmlns="http://www.w3.org/2000/svg">
<path d="M7.22289 4.42376L5.70735 7.1451C3.32895 11.4262 3.871 13.871 7.47733 17.4773L15.3095 25.3095C18.9158 28.9158 21.3606 29.4578 25.6417 27.0794L28.363 25.5639C29.1429 25.1269 29.2923 24.0705 28.6617 23.4399L25.1771 19.9553C24.9171 19.6953 24.4857 19.6953 24.2257 19.9553L23.4292 20.7518C21.7643 22.4167 19.847 21.2756 15.5714 17C11.2958 12.7244 10.3757 11.0169 12.035 9.35757L12.8315 8.56108C13.097 8.29558 13.097 7.87521 12.8315 7.60972L9.34687 4.12508C8.71631 3.49452 7.65986 3.64387 7.22289 4.42376Z" stroke="#666666" stroke-width="2.8" stroke-linecap="round" stroke-linejoin="round"/>
</svg>
