<svg width="16" height="16" viewBox="0 0 16 16" fill="none" xmlns="http://www.w3.org/2000/svg">
<path d="M14.3 6.32558C14.3 7.01158 13.9697 7.92158 13.376 8.9648C12.7938 9.98771 12.0084 11.0537 11.2087 12.029C10.4112 13.0017 9.61188 13.8693 9.01093 14.4946C8.81742 14.6959 8.64485 14.8718 8.5 15.0174C8.35515 14.8718 8.18258 14.6959 7.98907 14.4946C7.38812 13.8693 6.58877 13.0017 5.79131 12.029C4.99165 11.0537 4.20615 9.98771 3.624 8.9648C3.03028 7.92158 2.7 7.01158 2.7 6.32558C2.7 3.23649 5.27868 0.7 8.5 0.7C11.7213 0.7 14.3 3.23649 14.3 6.32558Z" stroke="#666666" stroke-width="1.4"/>
<circle cx="8.5" cy="6.5" r="1.8" stroke="#666666" stroke-width="1.4"/>
</svg>
